<?xml version="1.0" encoding="UTF-8" ?>
<!DOCTYPE svg PUBLIC "-//W3C//DTD SVG 1.1//EN" "http://www.w3.org/Graphics/SVG/1.1/DTD/svg11.dtd">
<svg width="680pt" height="320pt" viewBox="0 0 680 320" version="1.1" xmlns="http://www.w3.org/2000/svg">
<g id="#2c2c2cff">
<path fill="#2c2c2c" opacity="1.00" d=" M 44.56 0.00 L 557.43 0.00 C 569.50 1.14 581.22 6.52 589.37 15.60 C 597.65 24.57 602.25 36.79 601.98 48.99 C 602.02 116.66 602.00 184.33 601.88 252.00 C 601.79 259.94 602.11 267.89 601.67 275.82 C 600.60 292.15 590.26 307.36 575.68 314.69 C 570.31 317.53 564.33 318.81 558.43 320.00 L 45.57 320.00 C 33.15 319.05 21.02 313.71 12.67 304.34 C 5.26 296.51 1.07 286.09 0.00 275.44 L 0.00 44.57 C 1.06 34.39 4.84 24.39 11.68 16.67 C 19.86 6.98 32.01 1.21 44.56 0.00 M 44.01 39.01 C 44.02 118.64 43.94 198.28 44.05 277.91 C 214.99 277.86 385.92 277.91 556.86 277.86 C 556.94 198.25 557.03 118.63 556.97 39.02 C 385.99 38.98 215.00 39.00 44.01 39.01 Z" />
<path fill="#2c2c2c" opacity="1.00" d=" M 629.00 64.02 C 637.02 64.02 645.06 63.91 653.09 64.07 C 661.47 64.27 669.33 69.42 673.20 76.79 C 675.74 81.42 676.02 86.84 675.95 92.01 C 675.84 138.69 676.11 185.38 675.80 232.06 C 676.04 243.62 666.17 255.86 654.00 254.88 C 645.65 254.82 637.30 254.86 628.96 254.86 C 628.62 231.58 629.10 208.29 628.97 185.00 C 628.99 144.67 628.94 104.34 629.00 64.02 Z" />
<path fill="#2c2c2c" opacity="1.00" d=" M 79.01 72.01 C 107.34 71.99 135.66 71.99 163.99 72.01 C 164.01 129.67 164.01 187.33 163.99 244.98 C 135.66 245.00 107.34 245.00 79.01 244.98 C 78.99 187.33 79.00 129.67 79.01 72.01 Z" />
<path fill="#2c2c2c" opacity="1.00" d=" M 198.01 72.01 C 226.34 71.99 254.66 71.99 282.99 72.01 C 283.01 129.67 283.01 187.33 282.99 244.99 C 254.66 244.99 226.34 245.00 198.02 244.98 C 197.99 187.33 198.00 129.67 198.01 72.01 Z" />
<path fill="#2c2c2c" opacity="1.00" d=" M 317.01 72.01 C 345.34 71.99 373.66 71.99 401.99 72.01 C 402.06 129.67 401.91 187.33 401.99 244.99 C 373.66 244.99 345.34 245.00 317.01 244.98 C 316.99 187.33 316.99 129.67 317.01 72.01 Z" />
</g>
</svg>
