<?xml version="1.0" encoding="UTF-8" ?>
<!DOCTYPE svg PUBLIC "-//W3C//DTD SVG 1.1//EN" "http://www.w3.org/Graphics/SVG/1.1/DTD/svg11.dtd">
<svg width="680pt" height="320pt" viewBox="0 0 680 320" version="1.1" xmlns="http://www.w3.org/2000/svg">
<g id="#2c2c2cff">
<path fill="#2c2c2c" opacity="1.00" d=" M 44.55 0.00 L 557.44 0.00 C 569.99 1.17 582.14 7.00 590.33 16.68 C 598.01 25.53 602.23 37.27 601.98 48.99 C 602.02 116.66 602.00 184.34 601.88 252.01 C 601.78 259.94 602.10 267.89 601.67 275.82 C 600.58 292.40 589.93 307.83 575.01 315.02 C 569.82 317.66 564.08 318.83 558.44 320.00 L 45.56 320.00 C 32.66 319.04 20.11 313.24 11.72 303.28 C 5.04 295.85 1.38 286.22 0.00 276.42 L 0.00 43.58 C 1.35 34.26 4.65 25.06 10.75 17.77 C 18.95 7.46 31.53 1.23 44.55 0.00 M 44.01 39.00 C 44.02 118.64 43.95 198.28 44.04 277.91 C 214.98 277.85 385.92 277.91 556.86 277.86 C 556.93 198.25 557.02 118.63 556.98 39.02 C 385.99 38.98 215.00 39.01 44.01 39.00 Z" />
<path fill="#2c2c2c" opacity="1.00" d=" M 628.99 64.01 C 637.02 64.04 645.05 63.92 653.08 64.05 C 661.96 64.21 670.22 70.09 673.84 78.11 C 676.12 83.08 675.97 88.66 675.95 94.00 C 675.84 140.02 676.11 186.04 675.79 232.06 C 675.95 242.21 668.79 252.17 658.88 254.70 C 648.92 255.08 638.92 254.70 628.95 254.87 C 628.61 230.92 629.10 206.96 628.97 183.00 C 628.98 143.34 628.95 103.67 628.99 64.01 Z" />
</g>
</svg>
