<?xml version="1.0" encoding="UTF-8" ?>
<!DOCTYPE svg PUBLIC "-//W3C//DTD SVG 1.1//EN" "http://www.w3.org/Graphics/SVG/1.1/DTD/svg11.dtd">
<svg width="680pt" height="320pt" viewBox="0 0 680 320" version="1.1" xmlns="http://www.w3.org/2000/svg">
<g id="#2c2c2cff">
<path fill="#2c2c2c" opacity="1.00" d=" M 44.61 0.00 L 557.39 0.00 C 570.44 1.15 583.03 7.48 591.24 17.77 C 597.46 25.43 601.29 35.04 601.83 44.90 C 602.15 50.60 601.94 56.30 601.99 62.00 C 602.02 132.02 601.98 202.05 601.86 272.07 C 601.98 287.25 594.24 302.13 581.89 310.91 C 575.03 316.01 566.71 318.60 558.37 320.00 L 45.61 320.00 C 32.94 319.09 20.59 313.45 12.19 303.82 C 5.09 296.02 1.01 285.84 0.00 275.40 L 0.00 44.61 C 1.01 34.41 4.86 24.41 11.67 16.67 C 19.87 6.99 32.04 1.17 44.61 0.00 M 44.05 39.05 C 43.99 118.66 43.93 198.27 44.07 277.87 C 214.99 277.90 385.92 277.94 556.83 277.84 C 556.98 198.24 557.04 118.65 556.94 39.05 C 385.98 38.96 215.01 38.97 44.05 39.05 Z" />
<path fill="#2c2c2c" opacity="1.00" d=" M 629.04 64.05 C 636.71 63.93 644.39 63.99 652.07 64.02 C 660.04 63.96 667.83 68.21 672.11 74.95 C 675.08 79.34 676.08 84.74 675.95 89.97 C 675.90 133.65 676.00 177.33 675.91 221.02 C 675.58 228.16 676.86 235.79 673.46 242.41 C 670.45 248.44 664.81 253.72 658.00 254.80 C 648.34 254.95 638.66 254.88 629.00 254.82 C 628.61 229.55 629.13 204.27 628.97 179.00 C 629.02 140.68 628.89 102.37 629.04 64.05 Z" />
<path fill="#2c2c2c" opacity="1.00" d=" M 79.05 72.05 C 107.35 71.97 135.65 71.97 163.95 72.05 C 164.03 130.00 164.05 187.96 163.94 245.92 C 135.65 245.98 107.35 245.97 79.06 245.91 C 78.95 187.96 78.97 130.00 79.05 72.05 Z" />
</g>
</svg>
