<?xml version="1.0" encoding="UTF-8" ?>
<!DOCTYPE svg PUBLIC "-//W3C//DTD SVG 1.1//EN" "http://www.w3.org/Graphics/SVG/1.1/DTD/svg11.dtd">
<svg width="680pt" height="320pt" viewBox="0 0 680 320" version="1.1" xmlns="http://www.w3.org/2000/svg">
<g id="#2c2c2cff">
<path fill="#2c2c2c" opacity="1.00" d=" M 44.64 0.00 L 557.35 0.00 C 569.94 1.10 582.11 7.00 590.32 16.68 C 596.87 24.26 601.00 33.93 601.75 43.93 C 602.21 50.28 601.93 56.64 601.99 63.00 C 602.02 128.33 601.98 193.67 601.90 259.00 C 601.75 267.42 602.56 276.03 600.29 284.25 C 596.84 297.52 587.35 309.05 575.01 315.02 C 569.78 317.62 564.05 318.99 558.32 320.00 L 45.67 320.00 C 31.79 319.08 18.32 312.27 9.93 301.08 C 4.29 293.99 1.24 285.22 0.00 276.33 L 0.00 43.69 C 1.24 34.79 4.28 26.00 9.88 18.88 C 18.08 7.96 31.11 1.19 44.64 0.00 M 44.06 39.06 C 43.97 118.66 43.93 198.26 44.08 277.85 C 214.99 277.92 385.91 277.96 556.82 277.82 C 556.98 198.24 557.06 118.65 556.93 39.06 C 507.95 38.91 458.97 39.04 410.00 39.00 C 288.02 39.04 166.04 38.92 44.06 39.06 Z" />
<path fill="#2c2c2c" opacity="1.00" d=" M 629.05 64.07 C 637.40 63.98 645.76 63.85 654.11 64.14 C 666.13 64.84 676.23 75.93 675.92 87.95 C 675.91 135.98 676.07 184.01 675.83 232.04 C 675.98 242.18 668.80 252.25 658.85 254.70 C 648.92 255.07 638.94 254.85 629.00 254.80 C 628.61 234.87 629.06 214.93 628.97 195.00 C 629.03 151.36 628.87 107.71 629.05 64.07 Z" />
<path fill="#2c2c2c" opacity="1.00" d=" M 79.06 72.06 C 107.35 71.96 135.65 71.96 163.94 72.06 C 164.04 129.68 164.04 187.31 163.94 244.93 C 135.65 245.03 107.35 245.03 79.06 244.93 C 78.95 187.31 78.96 129.68 79.06 72.06 Z" />
</g>
</svg>
