<?xml version="1.0" encoding="UTF-8" ?>
<!DOCTYPE svg PUBLIC "-//W3C//DTD SVG 1.1//EN" "http://www.w3.org/Graphics/SVG/1.1/DTD/svg11.dtd">
<svg width="680pt" height="320pt" viewBox="0 0 680 320" version="1.1" xmlns="http://www.w3.org/2000/svg">
<g id="#2c2c2cff">
<path fill="#2c2c2c" opacity="1.00" d=" M 46.77 0.00 L 555.69 0.00 C 575.11 0.51 593.29 13.98 599.37 32.42 C 602.36 40.59 602.03 49.40 601.99 57.96 C 602.02 125.62 601.98 193.29 601.90 260.95 C 601.83 269.47 602.49 278.24 599.65 286.44 C 594.01 304.58 576.42 319.57 556.95 319.10 L 562.24 320.00 L 48.31 320.00 C 33.50 319.98 18.83 312.96 9.93 301.07 C 3.73 293.17 0.33 283.26 0.00 273.25 L 0.00 46.81 C 0.33 34.17 5.82 21.76 15.07 13.13 C 23.55 5.03 35.07 0.36 46.77 0.00 M 44.00 39.00 C 44.01 118.64 43.99 198.28 44.01 277.91 C 214.97 277.90 385.93 277.91 556.89 277.89 C 556.94 198.26 557.02 118.63 556.98 39.00 C 385.99 39.00 215.00 39.00 44.00 39.00 Z" />
<path fill="#2c2c2c" opacity="1.00" d=" M 628.98 64.01 C 637.36 64.08 645.75 63.83 654.12 64.12 C 666.13 64.87 676.26 75.95 675.92 87.98 C 675.91 136.02 676.06 184.06 675.83 232.10 C 676.00 242.27 668.74 252.17 658.86 254.77 C 648.87 255.01 638.85 254.83 628.85 254.85 C 629.03 191.23 628.96 127.62 628.98 64.01 Z" />
<path fill="#2c2c2c" opacity="1.00" d=" M 79.00 72.00 C 107.33 72.00 135.67 72.00 164.00 72.00 C 164.00 129.99 164.01 187.98 163.99 245.96 C 135.66 245.96 107.34 245.94 79.01 245.96 C 78.99 187.97 79.00 129.99 79.00 72.00 Z" />
<path fill="#2c2c2c" opacity="1.00" d=" M 198.00 72.00 C 226.33 72.00 254.67 72.00 283.00 72.00 C 283.00 129.99 283.01 187.98 282.99 245.96 C 254.66 245.95 226.34 245.94 198.01 245.96 C 197.99 187.97 198.00 129.99 198.00 72.00 Z" />
<path fill="#2c2c2c" opacity="1.00" d=" M 317.00 72.00 C 345.33 72.00 373.67 72.00 402.00 72.00 C 402.04 129.99 401.93 187.97 402.00 245.95 C 373.67 245.96 345.34 245.94 317.01 245.96 C 316.99 187.97 317.00 129.99 317.00 72.00 Z" />
<path fill="#2c2c2c" opacity="1.00" d=" M 436.00 72.00 C 464.33 72.00 492.67 72.00 521.00 72.00 C 521.02 129.99 520.99 187.97 520.95 245.95 C 492.63 245.96 464.32 245.94 436.01 245.96 C 435.99 187.97 436.00 129.99 436.00 72.00 Z" />
</g>
</svg>
