<?xml version="1.0" encoding="UTF-8" ?>
<!DOCTYPE svg PUBLIC "-//W3C//DTD SVG 1.1//EN" "http://www.w3.org/Graphics/SVG/1.1/DTD/svg11.dtd">
<svg width="680pt" height="320pt" viewBox="0 0 680 320" version="1.1" xmlns="http://www.w3.org/2000/svg">
<g id="#2c2c2cff">
<path fill="#2c2c2c" opacity="1.00" d=" M 44.62 0.00 L 557.36 0.00 C 569.94 1.11 582.11 7.00 590.32 16.67 C 597.08 24.50 601.26 34.56 601.83 44.90 C 602.17 50.93 601.94 56.97 601.99 63.00 C 602.02 128.33 601.97 193.67 601.90 259.00 C 601.75 267.42 602.56 276.02 600.29 284.25 C 596.78 297.76 587.00 309.47 574.34 315.35 C 569.29 317.74 563.81 319.02 558.34 320.00 L 45.64 320.00 C 32.24 319.08 19.22 312.75 10.81 302.19 C 4.50 294.65 0.95 285.11 0.00 275.37 L 0.00 44.63 C 0.95 35.14 4.29 25.80 10.32 18.32 C 18.52 7.71 31.33 1.19 44.62 0.00 M 44.02 39.02 C 44.00 118.64 43.96 198.27 44.04 277.90 C 214.98 277.89 385.93 277.92 556.87 277.87 C 556.96 198.25 557.03 118.64 556.97 39.02 C 385.99 38.98 215.00 38.99 44.02 39.02 Z" />
<path fill="#2c2c2c" opacity="1.00" d=" M 629.01 64.02 C 637.03 64.02 645.06 63.90 653.09 64.06 C 661.94 64.30 670.28 70.03 673.84 78.11 C 675.73 82.12 676.02 86.62 675.96 90.98 C 675.85 138.00 676.09 185.02 675.83 232.05 C 675.97 242.19 668.80 252.24 658.86 254.70 C 648.90 255.11 638.91 254.77 628.94 254.85 C 628.92 191.24 628.99 127.63 629.01 64.02 Z" />
<path fill="#2c2c2c" opacity="1.00" d=" M 79.02 72.02 C 107.34 71.99 135.66 71.99 163.98 72.02 C 164.01 129.67 164.02 187.33 163.98 244.98 C 135.66 245.00 107.34 245.01 79.02 244.98 C 78.99 187.32 78.99 129.67 79.02 72.02 Z" />
<path fill="#2c2c2c" opacity="1.00" d=" M 198.02 72.02 C 226.34 71.99 254.66 71.99 282.98 72.02 C 283.01 129.67 283.01 187.32 282.98 244.98 C 254.66 245.00 226.34 245.01 198.02 244.98 C 197.99 187.32 197.99 129.67 198.02 72.02 Z" />
<path fill="#2c2c2c" opacity="1.00" d=" M 317.02 72.02 C 345.34 71.99 373.66 71.99 401.98 72.02 C 402.06 129.67 401.93 187.32 401.98 244.98 C 373.66 245.01 345.34 245.00 317.02 244.98 C 316.99 187.32 316.99 129.67 317.02 72.02 Z" />
<path fill="#2c2c2c" opacity="1.00" d=" M 436.02 72.02 C 464.34 71.99 492.66 71.99 520.98 72.02 C 521.04 129.67 520.98 187.32 520.94 244.97 C 492.63 245.02 464.32 245.00 436.02 244.98 C 435.98 187.32 435.99 129.67 436.02 72.02 Z" />
</g>
</svg>
