<?xml version="1.0" standalone="no"?>
<!DOCTYPE svg PUBLIC "-//W3C//DTD SVG 20010904//EN"
 "http://www.w3.org/TR/2001/REC-SVG-20010904/DTD/svg10.dtd">
<svg version="1.0" xmlns="http://www.w3.org/2000/svg"
 width="680.000000pt" height="320.000000pt" viewBox="0 0 680.000000 320.000000"
 preserveAspectRatio="xMidYMid meet">

<g transform="translate(0.000000,320.000000) scale(0.100000,-0.100000)"
fill="#000000" stroke="none">
<path d="M359 3182 c-124 -33 -248 -132 -305 -243 -55 -110 -54 -76 -53 -1344
0 -1073 2 -1175 17 -1236 46 -175 198 -316 376 -348 84 -15 5148 -15 5232 0
190 35 348 193 383 383 8 41 11 427 10 1220 0 1294 3 1230 -69 1350 -42 69
-124 148 -191 182 -113 57 51 54 -2754 53 -2406 0 -2584 -1 -2646 -17z m5211
-1567 l0 -1195 -2565 0 -2565 0 0 1195 0 1195 2565 0 2565 0 0 -1195z"/>
<path d="M790 1610 l0 -870 425 0 425 0 0 870 0 870 -425 0 -425 0 0 -870z"/>
<path d="M1980 1610 l0 -870 425 0 425 0 0 870 0 870 -425 0 -425 0 0 -870z"/>
<path d="M6290 1606 l0 -956 150 0 c129 0 156 3 188 19 44 23 82 62 108 111
18 33 19 73 19 820 l0 785 -22 40 c-25 47 -64 85 -113 111 -28 15 -63 19 -182
22 l-148 4 0 -956z"/>
</g>
</svg>
