<?xml version="1.0" encoding="UTF-8" ?>
<!DOCTYPE svg PUBLIC "-//W3C//DTD SVG 1.1//EN" "http://www.w3.org/Graphics/SVG/1.1/DTD/svg11.dtd">
<svg width="680pt" height="320pt" viewBox="0 0 680 320" version="1.1" xmlns="http://www.w3.org/2000/svg">
<g id="#2c2c2cff">
<path fill="#2c2c2c" opacity="1.00" d=" M 44.63 0.00 L 557.35 0.00 C 570.41 1.12 583.02 7.47 591.23 17.77 C 597.26 25.17 601.03 34.40 601.75 43.93 C 602.20 49.94 601.94 55.98 601.99 62.00 C 602.02 132.03 601.98 202.05 601.87 272.07 C 601.95 285.81 595.67 299.34 585.25 308.26 C 577.78 314.91 568.12 318.51 558.33 320.00 L 45.65 320.00 C 31.78 319.08 18.31 312.26 9.93 301.08 C 4.13 293.74 0.92 284.63 0.00 275.37 L 0.00 44.65 C 0.94 35.15 4.30 25.80 10.32 18.32 C 18.53 7.71 31.34 1.18 44.63 0.00 M 44.02 39.02 C 44.00 118.65 43.96 198.27 44.04 277.89 C 214.98 277.90 385.93 277.93 556.87 277.87 C 556.96 198.25 557.03 118.64 556.96 39.03 C 385.98 38.98 215.00 38.99 44.02 39.02 Z" />
<path fill="#2c2c2c" opacity="1.00" d=" M 629.01 64.03 C 637.03 64.00 645.06 63.90 653.09 64.06 C 661.93 64.30 670.28 70.02 673.83 78.10 C 675.74 82.11 676.03 86.61 675.97 90.98 C 675.86 138.00 676.09 185.03 675.83 232.05 C 675.97 242.19 668.80 252.26 658.85 254.70 C 648.90 255.11 638.92 254.79 628.96 254.84 C 628.91 191.24 628.99 127.63 629.01 64.03 Z" />
</g>
</svg>
