<?xml version="1.0" encoding="UTF-8" ?>
<!DOCTYPE svg PUBLIC "-//W3C//DTD SVG 1.1//EN" "http://www.w3.org/Graphics/SVG/1.1/DTD/svg11.dtd">
<svg width="680pt" height="320pt" viewBox="0 0 680 320" version="1.1" xmlns="http://www.w3.org/2000/svg">
<g id="#2c2c2cff">
<path fill="#2c2c2c" opacity="1.00" d=" M 44.61 0.00 L 557.39 0.00 C 569.72 1.11 581.67 6.76 589.85 16.14 C 596.88 24.04 601.25 34.32 601.83 44.91 C 602.16 50.93 601.94 56.97 601.99 63.00 C 602.02 128.33 601.97 193.67 601.89 259.00 C 601.75 267.42 602.54 276.02 600.28 284.25 C 596.77 297.76 586.99 309.46 574.34 315.35 C 569.31 317.75 563.82 318.98 558.37 320.00 L 45.62 320.00 C 33.89 319.12 22.41 314.32 14.12 305.87 C 5.92 297.83 1.05 286.79 0.00 275.40 L 0.00 44.61 C 0.98 34.89 4.48 25.33 10.76 17.77 C 18.97 7.47 31.56 1.19 44.61 0.00 M 44.06 39.06 C 43.98 118.66 43.93 198.26 44.08 277.86 C 215.00 277.91 385.91 277.95 556.83 277.82 C 556.98 198.24 557.06 118.65 556.93 39.06 C 385.97 38.95 215.01 38.96 44.06 39.06 Z" />
<path fill="#2c2c2c" opacity="1.00" d=" M 629.04 64.06 C 637.06 63.94 645.08 63.94 653.09 64.06 C 661.95 64.29 670.27 70.03 673.84 78.11 C 675.88 82.44 676.02 87.31 675.96 92.00 C 675.85 138.69 676.10 185.37 675.82 232.05 C 675.96 242.19 668.80 252.22 658.87 254.70 C 648.93 255.07 638.96 254.83 629.01 254.81 C 628.59 235.55 629.05 216.27 628.97 197.00 C 629.02 152.69 628.88 108.37 629.04 64.06 Z" />
<path fill="#2c2c2c" opacity="1.00" d=" M 79.06 72.06 C 107.35 71.96 135.65 71.96 163.94 72.06 C 164.04 129.68 164.04 187.31 163.94 244.94 C 135.65 245.03 107.35 245.03 79.06 244.94 C 78.96 187.31 78.96 129.68 79.06 72.06 Z" />
<path fill="#2c2c2c" opacity="1.00" d=" M 198.06 72.06 C 226.35 71.96 254.65 71.96 282.94 72.06 C 283.04 129.68 283.04 187.31 282.94 244.94 C 254.65 245.03 226.35 245.03 198.06 244.94 C 197.96 187.31 197.96 129.68 198.06 72.06 Z" />
</g>
</svg>
