<?xml version="1.0" encoding="UTF-8" ?>
<!DOCTYPE svg PUBLIC "-//W3C//DTD SVG 1.1//EN" "http://www.w3.org/Graphics/SVG/1.1/DTD/svg11.dtd">
<svg width="680pt" height="320pt" viewBox="0 0 680 320" version="1.1" xmlns="http://www.w3.org/2000/svg">
<g id="#2c2c2cff">
<path fill="#2c2c2c" opacity="1.00" d=" M 44.57 0.00 L 557.42 0.00 C 569.50 1.13 581.22 6.53 589.38 15.61 C 597.41 24.33 602.01 36.11 601.96 47.97 C 602.05 122.67 601.97 197.37 601.86 272.06 C 601.98 287.25 594.24 302.13 581.89 310.91 C 575.05 316.03 566.72 318.55 558.41 320.00 L 45.57 320.00 C 33.63 319.08 21.94 314.13 13.64 305.37 C 5.70 297.40 1.08 286.56 0.00 275.43 L 0.00 43.61 C 1.35 34.03 4.84 24.61 11.21 17.22 C 19.41 7.22 31.78 1.20 44.57 0.00 M 44.03 39.03 C 44.00 118.65 43.94 198.27 44.06 277.90 C 214.99 277.88 385.92 277.93 556.85 277.85 C 556.96 198.25 557.04 118.64 556.96 39.03 C 385.98 38.98 215.00 38.98 44.03 39.03 Z" />
<path fill="#2c2c2c" opacity="1.00" d=" M 629.02 64.03 C 637.04 64.00 645.06 63.92 653.08 64.06 C 662.48 64.28 671.22 70.76 674.42 79.55 C 675.79 83.20 675.96 87.14 675.95 90.99 C 675.90 134.00 675.98 177.00 675.91 220.01 C 675.73 225.15 676.09 230.33 675.56 235.46 C 674.39 244.35 667.64 252.48 658.88 254.70 C 648.92 255.08 638.94 254.77 628.98 254.85 C 628.61 231.23 629.11 207.62 628.97 184.00 C 629.00 144.01 628.91 104.02 629.02 64.03 Z" />
<path fill="#2c2c2c" opacity="1.00" d=" M 79.03 72.03 C 107.34 71.98 135.66 71.98 163.97 72.03 C 164.01 130.00 164.04 187.97 163.96 245.94 C 135.65 245.96 107.35 245.95 79.05 245.93 C 78.95 187.97 79.00 130.00 79.03 72.03 Z" />
<path fill="#2c2c2c" opacity="1.00" d=" M 198.03 72.03 C 226.34 71.98 254.66 71.98 282.97 72.03 C 283.01 130.00 283.04 187.97 282.96 245.94 C 254.65 245.96 226.35 245.95 198.04 245.93 C 197.96 187.97 198.00 130.00 198.03 72.03 Z" />
</g>
</svg>
