<?xml version="1.0"?>
<svg width="680" height="320" xmlns="http://www.w3.org/2000/svg" xmlns:svg="http://www.w3.org/2000/svg" version="1.1">
 <g class="layer">
  <title>Layer 1</title>
  <g id="#2c2c2cff" transform="matrix(1, 0, 0, 1, 0, 0)">
   <path d="m44.55,0l512.89,0c12.55,1.17 24.7,7 32.89,16.68c7.68,8.85 11.9,20.59 11.65,32.31c0.04,67.67 0.02,135.35 -0.1,203.02c-0.1,7.93 0.22,15.88 -0.21,23.81c-1.09,16.58 -11.74,32.01 -26.66,39.2c-5.19,2.64 -10.93,3.81 -16.57,4.98l-512.88,0c-12.9,-0.96 -25.45,-6.76 -33.84,-16.72c-6.68,-7.43 -10.34,-17.06 -11.72,-26.86l0,-232.84c1.35,-9.32 4.65,-18.52 10.75,-25.81c8.2,-10.31 20.78,-16.54 33.8,-17.77m-0.54,39c0.01,79.64 -0.06,159.28 0.03,238.91c170.94,-0.06 341.88,0 512.82,-0.05c0.07,-79.61 0.16,-159.23 0.12,-238.84c-170.99,-0.04 -341.98,-0.01 -512.97,-0.02z" fill="#2c2c2c" id="svg_1" stroke="#2c2c2c"/>
   <path d="m628.99,64.01c8.03,0.03 16.06,-0.09 24.09,0.04c8.88,0.16 17.14,6.04 20.76,14.06c2.28,4.97 2.13,10.55 2.11,15.89c-0.11,46.02 0.16,92.04 -0.16,138.06c0.16,10.15 -7,20.11 -16.91,22.64c-9.96,0.38 -19.96,0 -29.93,0.17c-0.34,-23.95 0.15,-47.91 0.02,-71.87c0.01,-39.66 -0.02,-79.33 0.02,-118.99z" fill="#2c2c2c" id="svg_2" stroke="#2c2c2c"/>
  </g>
 </g>

</svg>