<?xml version="1.0" encoding="UTF-8" ?>
<!DOCTYPE svg PUBLIC "-//W3C//DTD SVG 1.1//EN" "http://www.w3.org/Graphics/SVG/1.1/DTD/svg11.dtd">
<svg width="512pt" height="512pt" viewBox="0 0 512 512" version="1.1" xmlns="http://www.w3.org/2000/svg">
<g id="#000000ff">
<path fill="#000000" opacity="1.00" d=" M 236.60 104.77 C 263.46 101.34 291.26 105.11 316.12 115.89 C 347.29 129.22 373.66 153.32 389.86 183.09 C 403.51 207.93 409.90 236.65 408.19 264.94 C 406.51 295.02 395.54 324.48 377.20 348.37 C 363.03 366.97 344.55 382.25 323.60 392.64 C 297.88 405.50 268.45 410.66 239.87 407.60 C 211.61 404.66 184.30 393.51 162.00 375.92 C 138.51 357.55 120.57 332.17 111.23 303.84 C 100.72 272.29 100.99 237.26 112.00 205.87 C 121.75 177.79 140.00 152.78 163.65 134.77 C 184.77 118.60 210.20 108.12 236.60 104.77 M 246.93 179.74 C 225.73 227.84 204.54 275.94 183.37 324.05 C 191.79 323.92 200.21 323.75 208.62 323.63 C 214.15 311.44 219.56 299.20 225.06 287.00 C 246.48 286.99 267.90 287.02 289.32 286.98 C 294.29 298.04 299.13 309.14 304.08 320.20 C 312.52 320.39 320.96 320.55 329.40 320.71 C 308.88 273.72 288.38 226.73 267.86 179.74 C 260.88 179.73 253.90 179.73 246.93 179.74 Z" />
<path fill="#000000" opacity="1.00" d=" M 257.33 214.95 C 264.46 230.90 271.52 246.89 278.61 262.86 C 264.37 262.87 250.13 262.87 235.88 262.86 C 243.02 246.88 250.18 230.92 257.33 214.95 Z" />
</g>
</svg>
