<?xml version="1.0" encoding="UTF-8" ?>
<!DOCTYPE svg PUBLIC "-//W3C//DTD SVG 1.1//EN" "http://www.w3.org/Graphics/SVG/1.1/DTD/svg11.dtd">
<svg width="512pt" height="512pt" viewBox="0 0 512 512" version="1.1" xmlns="http://www.w3.org/2000/svg">
<g id="#000000ff">
<path fill="#000000" opacity="1.00" d=" M 236.49 104.78 C 263.38 101.33 291.20 105.09 316.09 115.87 C 346.17 128.74 371.79 151.62 388.11 179.96 C 402.27 204.37 409.35 232.80 408.37 261.00 C 407.56 287.57 399.57 313.87 385.47 336.41 C 372.51 357.23 354.48 374.88 333.35 387.34 C 308.65 402.04 279.70 409.37 250.99 408.37 C 223.44 407.53 196.20 398.94 173.13 383.89 C 147.30 367.16 126.71 342.48 115.01 314.02 C 102.62 284.19 100.22 250.38 108.05 219.07 C 115.52 188.95 132.55 161.33 156.00 141.03 C 178.47 121.35 206.86 108.55 236.49 104.78 M 209.77 183.61 C 209.77 233.14 209.76 282.66 209.78 332.19 C 228.85 332.22 247.93 332.18 267.01 332.21 C 280.34 332.88 294.32 327.26 302.37 316.39 C 308.56 308.00 310.62 297.26 310.32 287.01 C 309.78 273.79 303.89 260.26 292.81 252.57 C 298.08 246.43 301.03 238.68 302.97 230.93 C 305.92 218.96 301.49 206.35 294.32 196.74 C 288.31 188.47 278.20 183.47 267.98 183.61 C 248.58 183.59 229.18 183.60 209.77 183.61 Z" />
<path fill="#000000" opacity="1.00" d=" M 233.77 207.81 C 245.88 207.79 258.00 207.80 270.11 207.79 C 272.30 207.54 273.96 209.23 275.37 210.65 C 279.65 215.26 280.84 221.95 280.27 228.04 C 279.67 235.24 273.99 241.56 267.07 243.32 C 255.98 243.52 244.87 243.35 233.77 243.39 C 233.76 231.53 233.75 219.67 233.77 207.81 Z" />
<path fill="#000000" opacity="1.00" d=" M 233.77 267.61 C 245.51 267.67 257.27 267.44 269.01 267.71 C 276.86 269.83 284.48 275.75 286.02 284.11 C 286.85 289.59 286.20 295.52 283.36 300.36 C 280.42 305.21 274.71 308.16 269.08 308.02 C 257.31 307.97 245.54 308.02 233.76 307.99 C 233.76 294.53 233.75 281.07 233.77 267.61 Z" />
</g>
</svg>
