<?xml version="1.0" encoding="UTF-8" ?>
<!DOCTYPE svg PUBLIC "-//W3C//DTD SVG 1.1//EN" "http://www.w3.org/Graphics/SVG/1.1/DTD/svg11.dtd">
<svg width="980pt" height="632pt" viewBox="0 0 980 632" version="1.1" xmlns="http://www.w3.org/2000/svg">
<g id="#00cd00ff">
<path fill="#00cd00" opacity="1.00" d=" M 403.97 0.00 L 405.57 0.00 C 596.97 161.71 788.60 323.15 980.00 484.86 L 980.00 486.40 C 940.61 472.20 900.62 459.72 861.11 445.85 C 766.03 414.00 671.11 381.71 576.09 349.71 C 575.89 443.81 576.03 537.90 576.03 632.00 L 574.44 632.00 C 388.07 474.54 201.48 317.33 14.95 160.05 C 9.92 155.67 4.39 151.78 0.00 146.72 L 0.00 145.64 C 30.65 156.92 61.94 166.37 92.71 177.33 C 196.51 212.12 300.09 247.58 403.90 282.30 C 404.12 188.20 403.97 94.10 403.97 0.00 Z" />
</g>
</svg>
