<?xml version="1.0" encoding="UTF-8" ?>
<!DOCTYPE svg PUBLIC "-//W3C//DTD SVG 1.1//EN" "http://www.w3.org/Graphics/SVG/1.1/DTD/svg11.dtd">
<svg width="45pt" height="38pt" viewBox="0 0 45 38" version="1.1" xmlns="http://www.w3.org/2000/svg">
<g id="#f4f2f2f4">
<path fill="#f4f2f2" opacity="0.96" d=" M 10.66 0.00 L 12.87 0.00 C 16.64 0.27 19.95 2.29 22.50 4.98 C 24.92 2.43 28.00 0.52 31.53 0.00 L 34.28 0.00 C 39.73 0.63 44.28 5.03 45.00 10.48 L 45.00 12.93 C 44.22 21.42 36.91 26.91 30.56 31.55 C 27.92 33.65 24.84 35.28 22.76 38.00 L 22.30 38.00 C 16.43 32.07 8.47 28.35 3.40 21.56 C 1.55 19.19 0.42 16.34 0.00 13.37 L 0.00 11.33 C 0.24 5.54 4.98 0.73 10.66 0.00 M 7.58 2.52 C 1.50 5.11 -0.05 13.35 3.36 18.65 C 7.93 26.11 16.00 30.25 22.50 35.78 C 29.10 29.98 37.73 25.97 42.00 17.92 C 44.93 12.68 43.26 5.01 37.48 2.53 C 32.06 -0.05 25.84 2.80 22.52 7.36 C 19.17 2.85 13.00 -0.05 7.58 2.52 Z" />
</g>
<g id="#f85b5bff">
<path fill="#f85b5b" opacity="1.00" d=" M 7.58 2.52 C 13.00 -0.05 19.17 2.85 22.52 7.36 C 25.84 2.80 32.06 -0.05 37.48 2.53 C 43.26 5.01 44.93 12.68 42.00 17.92 C 37.73 25.97 29.10 29.98 22.50 35.78 C 16.00 30.25 7.93 26.11 3.36 18.65 C -0.05 13.35 1.50 5.11 7.58 2.52 Z" />
</g>
</svg>
