<?xml version="1.0" encoding="UTF-8" ?>
<!DOCTYPE svg PUBLIC "-//W3C//DTD SVG 1.1//EN" "http://www.w3.org/Graphics/SVG/1.1/DTD/svg11.dtd">
<svg width="96pt" height="96pt" viewBox="0 0 96 96" version="1.1" xmlns="http://www.w3.org/2000/svg">
<g id="#e74c3cff">
<path fill="#e74c3c" opacity="1.00" d=" M 2.26 24.16 C 5.11 14.18 14.57 6.56 24.93 5.93 C 33.60 5.16 42.17 9.14 47.95 15.49 C 52.85 10.18 59.63 6.41 66.92 5.93 C 74.21 5.32 81.73 7.96 86.93 13.12 C 92.25 18.22 95.18 25.70 94.66 33.06 C 94.26 39.80 91.34 46.11 87.72 51.70 C 82.01 60.44 74.43 67.74 66.75 74.72 C 60.51 80.40 54.30 86.13 47.96 91.70 C 39.56 84.23 31.25 76.66 23.02 69.00 C 15.56 61.71 8.33 53.79 4.06 44.14 C 1.28 37.94 0.19 30.74 2.26 24.16 Z" />
</g>
</svg>
