<?xml version="1.0" encoding="UTF-8" ?>
<!DOCTYPE svg PUBLIC "-//W3C//DTD SVG 1.1//EN" "http://www.w3.org/Graphics/SVG/1.1/DTD/svg11.dtd">
<svg width="250pt" height="250pt" viewBox="0 0 250 250" version="1.1" xmlns="http://www.w3.org/2000/svg">
<g id="#ffffffff">
<path fill="#ffffff" opacity="1.00" d=" M 117.82 0.00 L 132.41 0.00 C 161.04 1.73 189.00 13.47 209.96 33.10 C 233.66 54.72 248.19 85.81 250.00 117.81 L 250.00 132.41 C 248.25 161.03 236.55 188.97 216.93 209.92 C 195.31 233.65 164.20 248.20 132.18 250.00 L 117.59 250.00 C 88.98 248.25 61.05 236.56 40.09 216.95 C 16.37 195.32 1.78 164.21 0.00 132.18 L 0.00 117.59 C 1.85 85.65 16.42 54.69 40.02 33.09 C 61.06 13.43 89.09 1.65 117.82 0.00 M 108.51 13.84 C 88.37 16.80 69.12 25.39 53.47 38.40 C 34.81 53.75 21.30 75.27 15.73 98.79 C 10.12 122.10 12.18 147.24 21.73 169.25 C 32.98 195.72 54.85 217.47 81.40 228.54 C 101.58 237.16 124.33 239.45 145.87 235.41 C 170.47 230.85 193.34 217.66 209.71 198.76 C 222.78 183.79 231.81 165.32 235.42 145.78 C 240.32 119.90 235.83 92.31 222.66 69.46 C 210.15 47.41 189.97 29.81 166.37 20.54 C 148.13 13.18 127.93 11.06 108.51 13.84 Z" />
</g>
<g id="#333333ff">
<path fill="#333333" opacity="1.00" d=" M 108.51 13.84 C 127.93 11.06 148.13 13.18 166.37 20.54 C 189.97 29.81 210.15 47.41 222.66 69.46 C 235.83 92.31 240.32 119.90 235.42 145.78 C 231.81 165.32 222.78 183.79 209.71 198.76 C 193.34 217.66 170.47 230.85 145.87 235.41 C 124.33 239.45 101.58 237.16 81.40 228.54 C 54.85 217.47 32.98 195.72 21.73 169.25 C 12.18 147.24 10.12 122.10 15.73 98.79 C 21.30 75.27 34.81 53.75 53.47 38.40 C 69.12 25.39 88.37 16.80 108.51 13.84 M 131.35 75.17 C 122.48 73.12 113.66 70.82 104.77 68.86 C 104.71 73.14 104.79 77.42 104.72 81.71 C 89.23 85.32 73.76 89.00 58.26 92.59 C 58.25 100.00 58.21 107.41 58.29 114.82 C 78.42 110.02 98.52 105.06 118.63 100.15 C 119.16 95.95 120.27 91.50 123.43 88.45 C 126.69 85.53 131.73 83.95 135.80 86.11 C 139.44 87.78 141.56 91.35 143.34 94.75 C 161.68 90.45 180.02 86.16 198.38 81.92 C 196.55 74.76 193.81 67.81 189.92 61.50 C 170.39 66.02 150.90 70.77 131.35 75.17 M 177.14 99.85 C 175.35 114.12 165.80 126.26 154.22 134.23 C 146.84 139.14 138.82 143.49 130.03 145.14 C 106.10 150.78 82.17 156.42 58.25 162.09 C 58.26 169.50 58.23 176.91 58.27 184.32 C 73.76 180.72 89.22 176.98 104.72 173.41 C 104.78 177.02 104.73 180.63 104.76 184.24 C 113.66 184.25 122.56 184.27 131.46 184.23 C 131.55 178.44 131.46 172.65 131.51 166.86 C 149.73 162.62 167.20 153.82 180.28 140.29 C 192.10 128.02 199.18 111.44 200.07 94.45 C 192.41 96.19 184.78 98.05 177.14 99.85 M 58.26 127.34 C 58.25 134.76 58.23 142.18 58.27 149.60 C 73.84 145.91 89.41 142.27 104.99 138.63 C 105.01 131.21 105.00 123.80 104.99 116.38 C 89.39 119.94 73.85 123.75 58.26 127.34 Z" />
</g>
<g id="#ff4b4bff">
<path fill="#ff4b4b" opacity="1.00" d=" M 131.35 75.17 C 150.90 70.77 170.39 66.02 189.92 61.50 C 193.81 67.81 196.55 74.76 198.38 81.92 C 180.02 86.16 161.68 90.45 143.34 94.75 C 141.56 91.35 139.44 87.78 135.80 86.11 C 131.73 83.95 126.69 85.53 123.43 88.45 C 120.27 91.50 119.16 95.95 118.63 100.15 C 98.52 105.06 78.42 110.02 58.29 114.82 C 58.21 107.41 58.25 100.00 58.26 92.59 C 73.76 89.00 89.23 85.32 104.72 81.71 C 104.79 77.42 104.71 73.14 104.77 68.86 C 113.66 70.82 122.48 73.12 131.35 75.17 Z" />
<path fill="#ff4b4b" opacity="1.00" d=" M 177.14 99.85 C 184.78 98.05 192.41 96.19 200.07 94.45 C 199.18 111.44 192.10 128.02 180.28 140.29 C 167.20 153.82 149.73 162.62 131.51 166.86 C 131.46 172.65 131.55 178.44 131.46 184.23 C 122.56 184.27 113.66 184.25 104.76 184.24 C 104.73 180.63 104.78 177.02 104.72 173.41 C 89.22 176.98 73.76 180.72 58.27 184.32 C 58.23 176.91 58.26 169.50 58.25 162.09 C 82.17 156.42 106.10 150.78 130.03 145.14 C 138.82 143.49 146.84 139.14 154.22 134.23 C 165.80 126.26 175.35 114.12 177.14 99.85 Z" />
<path fill="#ff4b4b" opacity="1.00" d=" M 58.26 127.34 C 73.85 123.75 89.39 119.94 104.99 116.38 C 105.00 123.80 105.01 131.21 104.99 138.63 C 89.41 142.27 73.84 145.91 58.27 149.60 C 58.23 142.18 58.25 134.76 58.26 127.34 Z" />
</g>
</svg>
