<?xml version="1.0" encoding="UTF-8" ?>
<!DOCTYPE svg PUBLIC "-//W3C//DTD SVG 1.1//EN" "http://www.w3.org/Graphics/SVG/1.1/DTD/svg11.dtd">
<svg width="250pt" height="250pt" viewBox="0 0 250 250" version="1.1" xmlns="http://www.w3.org/2000/svg">
<g id="#ffffffff">
<path fill="#ffffff" opacity="1.00" d=" M 117.83 0.00 L 132.41 0.00 C 161.01 1.73 188.93 13.44 209.88 33.02 C 233.63 54.65 248.20 85.78 250.00 117.82 L 250.00 132.41 C 248.25 161.02 236.56 188.95 216.95 209.90 C 195.33 233.64 164.21 248.20 132.19 250.00 L 117.59 250.00 C 88.97 248.25 61.02 236.55 40.07 216.92 C 16.36 195.30 1.78 164.20 0.00 132.18 L 0.00 117.59 C 1.85 85.64 16.43 54.66 40.06 33.06 C 61.10 13.41 89.12 1.65 117.83 0.00 M 108.50 13.84 C 88.13 16.83 68.66 25.60 52.92 38.86 C 34.19 54.46 20.75 76.32 15.42 100.12 C 9.22 127.17 13.48 156.48 27.35 180.54 C 39.46 201.89 58.76 219.08 81.41 228.55 C 101.79 237.25 124.81 239.50 146.53 235.28 C 170.91 230.62 193.52 217.46 209.75 198.72 C 224.49 181.86 233.98 160.52 236.59 138.28 C 239.36 114.62 234.56 90.09 222.63 69.42 C 210.14 47.41 189.99 29.84 166.43 20.57 C 148.18 13.19 127.95 11.05 108.50 13.84 Z" />
</g>
<g id="#333333ff">
<path fill="#333333" opacity="1.00" d=" M 108.50 13.84 C 127.95 11.05 148.18 13.19 166.43 20.57 C 189.99 29.84 210.14 47.41 222.63 69.42 C 234.56 90.09 239.36 114.62 236.59 138.28 C 233.98 160.52 224.49 181.86 209.75 198.72 C 193.52 217.46 170.91 230.62 146.53 235.28 C 124.81 239.50 101.79 237.25 81.41 228.55 C 58.76 219.08 39.46 201.89 27.35 180.54 C 13.48 156.48 9.22 127.17 15.42 100.12 C 20.75 76.32 34.19 54.46 52.92 38.86 C 68.66 25.60 88.13 16.83 108.50 13.84 M 131.75 75.16 C 122.71 73.33 113.80 70.78 104.77 68.86 C 104.71 73.14 104.79 77.42 104.72 81.71 C 89.23 85.32 73.76 89.00 58.27 92.59 C 58.24 100.01 58.24 107.43 58.27 114.84 C 78.40 110.01 98.51 105.06 118.63 100.16 C 119.16 95.96 120.26 91.53 123.40 88.49 C 126.65 85.54 131.71 83.95 135.80 86.11 C 139.43 87.79 141.58 91.35 143.35 94.76 C 161.68 90.44 180.03 86.18 198.38 81.91 C 196.55 74.74 193.78 67.79 189.92 61.47 C 170.54 66.08 151.14 70.59 131.75 75.16 M 177.14 99.84 C 175.36 114.10 165.83 126.23 154.26 134.19 C 146.91 139.10 138.92 143.46 130.15 145.11 C 106.18 150.76 82.21 156.41 58.25 162.08 C 58.25 169.50 58.25 176.92 58.25 184.34 C 73.74 180.71 89.22 176.99 104.73 173.41 C 104.77 177.02 104.73 180.63 104.76 184.24 C 113.67 184.26 122.58 184.26 131.49 184.24 C 131.52 178.45 131.48 172.66 131.51 166.87 C 149.96 162.56 167.67 153.60 180.78 139.75 C 192.32 127.55 199.18 111.18 200.08 94.43 C 192.42 96.20 184.79 98.05 177.14 99.84 M 58.26 127.34 C 58.25 134.76 58.23 142.18 58.27 149.60 C 73.84 145.91 89.41 142.27 104.99 138.62 C 105.00 131.21 105.01 123.79 104.98 116.38 C 89.39 119.95 73.85 123.75 58.26 127.34 Z" />
</g>
<g id="#ff4b4bff">
<path fill="#ff4b4b" opacity="1.00" d=" M 131.75 75.16 C 151.14 70.59 170.54 66.08 189.92 61.47 C 193.78 67.79 196.55 74.74 198.38 81.91 C 180.03 86.18 161.68 90.44 143.35 94.76 C 141.58 91.35 139.43 87.79 135.80 86.11 C 131.71 83.95 126.65 85.54 123.40 88.49 C 120.26 91.53 119.16 95.96 118.63 100.16 C 98.51 105.06 78.40 110.01 58.27 114.84 C 58.24 107.43 58.24 100.01 58.27 92.59 C 73.76 89.00 89.23 85.32 104.72 81.71 C 104.79 77.42 104.71 73.14 104.77 68.86 C 113.80 70.78 122.71 73.33 131.75 75.16 Z" />
<path fill="#ff4b4b" opacity="1.00" d=" M 177.14 99.84 C 184.79 98.05 192.42 96.20 200.08 94.43 C 199.18 111.18 192.32 127.55 180.78 139.75 C 167.67 153.60 149.96 162.56 131.51 166.87 C 131.48 172.66 131.52 178.45 131.49 184.24 C 122.58 184.26 113.67 184.26 104.76 184.24 C 104.73 180.63 104.77 177.02 104.73 173.41 C 89.22 176.99 73.74 180.71 58.25 184.34 C 58.25 176.92 58.25 169.50 58.25 162.08 C 82.21 156.41 106.18 150.76 130.15 145.11 C 138.92 143.46 146.91 139.10 154.26 134.19 C 165.83 126.23 175.36 114.10 177.14 99.84 Z" />
<path fill="#ff4b4b" opacity="1.00" d=" M 58.26 127.34 C 73.85 123.75 89.39 119.95 104.98 116.38 C 105.01 123.79 105.00 131.21 104.99 138.62 C 89.41 142.27 73.84 145.91 58.27 149.60 C 58.23 142.18 58.25 134.76 58.26 127.34 Z" />
</g>
</svg>
