<?xml version="1.0" encoding="UTF-8" ?>
<!DOCTYPE svg PUBLIC "-//W3C//DTD SVG 1.1//EN" "http://www.w3.org/Graphics/SVG/1.1/DTD/svg11.dtd">
<svg width="250pt" height="250pt" viewBox="0 0 250 250" version="1.1" xmlns="http://www.w3.org/2000/svg">
<g id="#ff4b4bff">
<path fill="#ff4b4b" opacity="1.00" d=" M 131.78 75.16 C 151.39 71.58 170.64 66.11 190.10 61.78 C 193.19 68.25 195.77 74.95 198.25 81.67 C 180.18 85.28 162.50 90.81 144.28 93.59 C 140.70 90.84 137.95 87.03 133.85 84.92 C 129.76 84.15 125.66 86.02 122.73 88.71 C 120.43 92.13 119.17 96.12 117.75 99.97 C 98.21 104.80 78.68 109.68 59.08 114.24 C 59.03 107.10 59.00 99.95 58.96 92.81 C 74.27 89.11 89.63 85.62 104.97 82.03 C 104.98 77.74 105.00 73.46 105.00 69.17 C 113.93 71.11 122.66 74.38 131.78 75.16 Z" />
<path fill="#ff4b4b" opacity="1.00" d=" M 177.56 100.16 C 185.10 98.35 192.64 96.54 200.21 94.85 C 198.44 105.97 195.77 117.19 189.95 126.94 C 177.59 148.14 154.61 160.79 131.42 166.70 C 131.21 172.46 131.05 178.22 130.91 183.98 C 122.29 184.01 113.66 184.01 105.04 183.99 C 105.01 181.23 104.95 175.71 104.92 172.95 C 89.63 176.66 74.29 180.19 58.97 183.79 C 58.99 176.56 59.01 169.33 59.04 162.11 C 84.69 156.08 110.47 150.54 135.94 143.81 C 155.60 137.15 174.15 121.56 177.56 100.16 Z" />
<path fill="#ff4b4b" opacity="1.00" d=" M 59.04 127.29 C 74.42 124.16 89.60 120.16 104.93 116.80 C 104.97 123.92 105.00 131.05 105.03 138.18 C 89.73 141.93 74.36 145.39 59.04 149.05 C 59.02 141.80 59.02 134.54 59.04 127.29 Z" />
</g>
</svg>
