<?xml version="1.0" encoding="UTF-8" ?>
<!DOCTYPE svg PUBLIC "-//W3C//DTD SVG 1.1//EN" "http://www.w3.org/Graphics/SVG/1.1/DTD/svg11.dtd">
<svg width="180pt" height="180pt" viewBox="0 0 180 180" version="1.1" xmlns="http://www.w3.org/2000/svg">
<g id="#ffffffff">
<path fill="#ffffff" opacity="1.00" d=" M 39.13 16.18 C 57.34 3.65 80.28 -1.73 102.17 1.33 C 123.96 4.16 144.49 15.43 158.68 32.21 C 171.18 46.80 178.71 65.48 180.00 84.64 L 180.00 96.58 C 178.70 116.15 170.91 135.23 157.92 149.97 C 143.81 166.26 123.67 177.10 102.31 180.00 L 77.59 180.00 C 58.15 177.27 39.65 168.12 25.92 154.07 C 10.68 138.86 1.38 118.00 0.00 96.52 L 0.00 84.57 C 1.72 57.37 16.53 31.42 39.13 16.18 M 55.00 34.77 C 40.51 43.73 29.78 58.54 25.73 75.09 C 22.60 87.65 23.18 101.12 27.47 113.34 C 33.11 129.99 45.75 144.04 61.61 151.58 C 75.30 158.27 91.30 159.68 106.11 156.37 C 108.17 155.80 110.23 155.23 112.28 154.62 C 129.03 148.72 143.43 136.16 150.91 119.97 C 158.21 104.75 159.26 86.73 154.08 70.69 C 143.62 81.04 126.15 82.80 113.90 74.60 C 116.76 72.18 119.61 69.75 122.47 67.34 C 122.89 67.55 123.72 67.98 124.14 68.19 C 126.81 68.81 129.52 69.20 132.25 69.42 C 135.16 69.05 138.02 68.34 140.78 67.36 C 143.22 66.01 145.43 64.32 147.48 62.45 C 154.83 54.36 154.85 40.26 147.10 32.44 C 145.17 30.65 143.09 29.02 140.78 27.76 C 138.01 26.82 135.19 26.04 132.27 25.73 C 129.25 25.92 126.24 26.35 123.36 27.31 C 119.89 29.00 116.58 31.20 114.26 34.34 C 108.86 41.23 108.36 51.42 112.94 58.86 C 110.62 61.68 108.26 64.46 105.96 67.29 C 102.53 62.53 100.13 56.98 99.47 51.11 C 98.36 42.34 101.47 33.44 106.90 26.58 C 89.46 22.11 70.20 25.06 55.00 34.77 Z" />
<path fill="#ffffff" opacity="1.00" d=" M 83.39 89.52 C 87.73 87.13 93.80 90.04 94.41 95.03 C 95.70 100.76 88.95 105.92 83.73 103.27 C 78.04 101.00 77.77 92.04 83.39 89.52 Z" />
<path fill="#ffffff" opacity="1.00" d=" M 94.34 107.35 C 94.98 107.27 96.28 107.11 96.92 107.03 C 100.89 112.41 104.65 117.95 108.78 123.20 C 108.44 123.66 107.75 124.59 107.41 125.05 C 103.03 119.17 98.91 113.08 94.34 107.35 Z" />
<path fill="#ffffff" opacity="1.00" d=" M 86.17 110.66 C 86.62 110.58 87.51 110.44 87.95 110.36 C 88.02 110.78 88.15 111.61 88.22 112.02 C 89.04 117.99 89.49 124.00 90.18 129.99 C 89.55 131.16 88.96 132.34 88.39 133.55 L 88.34 132.44 C 87.72 125.17 86.81 117.92 86.17 110.66 Z" />
<path fill="#ffffff" opacity="1.00" d=" M 102.35 132.57 C 106.86 131.14 112.03 135.24 111.29 140.02 C 111.31 145.27 104.64 148.35 100.43 145.50 C 95.29 142.67 96.50 133.78 102.35 132.57 Z" />
</g>
<g id="#2a3241ff">
<path fill="#2a3241" opacity="1.00" d=" M 55.00 34.77 C 70.20 25.06 89.46 22.11 106.90 26.58 C 101.47 33.44 98.36 42.34 99.47 51.11 C 100.13 56.98 102.53 62.53 105.96 67.29 C 101.99 72.10 97.89 76.80 94.02 81.69 C 87.50 77.36 83.53 69.72 75.95 66.97 C 68.93 63.93 61.16 68.29 56.67 73.70 C 46.88 85.84 48.11 104.37 57.82 116.19 C 62.16 121.26 67.09 126.18 73.39 128.70 C 78.15 130.72 83.26 131.65 88.34 132.44 L 88.39 133.55 C 88.38 133.98 88.37 134.84 88.36 135.27 C 89.63 136.43 90.91 137.58 92.17 138.75 C 90.60 139.60 89.02 140.44 87.44 141.29 C 88.06 143.45 88.69 145.61 89.37 147.76 C 91.27 147.56 93.17 147.37 95.07 147.19 C 94.64 149.10 94.19 151.00 93.75 152.91 C 95.67 153.85 97.59 154.78 99.51 155.71 C 100.70 154.24 101.89 152.77 103.09 151.30 C 104.09 152.99 105.08 154.69 106.11 156.37 C 91.30 159.68 75.30 158.27 61.61 151.58 C 45.75 144.04 33.11 129.99 27.47 113.34 C 23.18 101.12 22.60 87.65 25.73 75.09 C 29.78 58.54 40.51 43.73 55.00 34.77 Z" />
<path fill="#2a3241" opacity="1.00" d=" M 99.12 126.02 C 101.40 125.66 101.81 128.10 102.70 129.61 C 104.13 129.75 105.57 129.89 107.01 130.02 C 108.12 128.69 109.18 127.12 111.03 126.82 C 110.82 128.52 110.56 130.22 110.28 131.91 C 111.60 134.70 114.33 135.08 117.06 134.38 C 117.31 135.03 117.55 135.68 117.80 136.34 C 116.53 136.94 115.27 137.53 114.00 138.13 C 113.86 139.46 113.77 140.79 113.74 142.13 C 114.73 143.44 116.62 144.20 117.00 145.89 C 115.69 147.65 113.59 145.83 111.94 145.67 C 110.95 146.48 109.97 147.30 108.99 148.12 C 109.11 149.82 109.23 151.53 109.33 153.24 C 106.88 153.55 106.35 151.05 105.43 149.38 C 104.05 149.28 102.67 149.18 101.29 149.09 C 100.08 150.14 99.02 153.49 97.04 151.87 C 97.24 150.31 97.62 148.78 97.99 147.25 C 97.15 146.27 96.30 145.29 95.45 144.32 C 93.53 144.39 90.88 145.58 90.18 142.96 C 91.53 142.30 92.89 141.65 94.24 141.00 C 94.37 139.53 94.53 138.06 94.66 136.59 C 93.29 135.35 90.53 134.44 91.94 132.18 C 93.35 132.65 94.75 133.12 96.16 133.59 C 97.28 132.70 98.40 131.80 99.51 130.91 C 99.38 129.28 99.24 127.65 99.12 126.02 M 102.35 132.57 C 96.50 133.78 95.29 142.67 100.43 145.50 C 104.64 148.35 111.31 145.27 111.29 140.02 C 112.03 135.24 106.86 131.14 102.35 132.57 Z" />
</g>
<g id="#e2766aff">
<path fill="#e2766a" opacity="1.00" d=" M 123.36 27.31 C 126.24 26.35 129.25 25.92 132.27 25.73 C 132.39 40.29 132.43 54.86 132.25 69.42 C 129.52 69.20 126.81 68.81 124.14 68.19 C 124.24 58.79 123.99 49.40 124.19 40.00 C 124.32 35.75 124.00 31.51 123.36 27.31 Z" />
</g>
<g id="#e18a7fff">
<path fill="#e18a7f" opacity="1.00" d=" M 132.27 25.73 C 135.19 26.04 138.01 26.82 140.78 27.76 C 140.47 40.95 140.47 54.16 140.78 67.36 C 138.02 68.34 135.16 69.05 132.25 69.42 C 132.43 54.86 132.39 40.29 132.27 25.73 Z" />
</g>
<g id="#e36c5eff">
<path fill="#e36c5e" opacity="1.00" d=" M 114.26 34.34 C 116.58 31.20 119.89 29.00 123.36 27.31 C 124.00 31.51 124.32 35.75 124.19 40.00 C 123.99 49.40 124.24 58.79 124.14 68.19 C 123.72 67.98 122.89 67.55 122.47 67.34 C 118.57 65.48 115.20 62.56 112.94 58.86 C 108.36 51.42 108.86 41.23 114.26 34.34 Z" />
</g>
<g id="#dfa59eff">
<path fill="#dfa59e" opacity="1.00" d=" M 140.78 27.76 C 143.09 29.02 145.17 30.65 147.10 32.44 C 146.42 42.41 146.00 52.54 147.48 62.45 C 145.43 64.32 143.22 66.01 140.78 67.36 C 140.47 54.16 140.47 40.95 140.78 27.76 Z" />
</g>
<g id="#dec5c2ff">
<path fill="#dec5c2" opacity="1.00" d=" M 147.10 32.44 C 154.85 40.26 154.83 54.36 147.48 62.45 C 146.00 52.54 146.42 42.41 147.10 32.44 Z" />
</g>
<g id="#4e8589ff">
<path fill="#4e8589" opacity="1.00" d=" M 105.96 67.29 C 108.26 64.46 110.62 61.68 112.94 58.86 C 115.20 62.56 118.57 65.48 122.47 67.34 C 119.61 69.75 116.76 72.18 113.90 74.60 C 110.48 77.46 107.11 80.38 103.68 83.24 C 101.30 85.23 98.91 87.23 96.54 89.24 C 97.05 90.39 97.57 91.54 98.10 92.69 C 98.83 92.88 100.29 93.27 101.02 93.46 C 101.18 94.69 101.34 95.93 101.48 97.16 C 100.34 97.66 99.20 98.15 98.06 98.64 C 97.41 100.66 97.50 102.74 98.14 104.74 C 97.84 105.31 97.23 106.46 96.92 107.03 C 96.28 107.11 94.98 107.27 94.34 107.35 C 93.92 106.84 93.51 106.34 93.10 105.83 C 90.35 106.84 88.92 109.31 88.22 112.02 C 88.15 111.61 88.02 110.78 87.95 110.36 C 87.51 110.44 86.62 110.58 86.17 110.66 C 84.77 108.83 83.04 107.31 80.97 106.28 C 79.98 106.80 78.99 107.33 78.00 107.86 C 77.08 106.95 76.16 106.03 75.26 105.11 C 75.67 104.14 76.08 103.17 76.49 102.20 C 76.11 101.35 75.73 100.49 75.34 99.64 C 74.24 99.07 73.15 98.48 72.05 97.91 C 72.03 96.73 72.00 95.56 71.98 94.38 C 73.15 93.98 74.32 93.58 75.48 93.17 C 75.73 91.08 75.64 88.97 75.14 86.92 C 75.78 86.13 76.43 85.34 77.08 84.56 C 78.28 84.98 79.49 85.39 80.69 85.82 C 81.59 85.41 82.49 85.01 83.39 84.61 C 83.74 83.55 84.08 82.50 84.43 81.45 C 85.63 81.42 86.84 81.40 88.05 81.38 C 88.94 82.63 88.99 84.99 90.93 85.01 C 92.07 84.01 93.05 82.85 94.02 81.69 C 97.89 76.80 101.99 72.10 105.96 67.29 M 83.39 89.52 C 77.77 92.04 78.04 101.00 83.73 103.27 C 88.95 105.92 95.70 100.76 94.41 95.03 C 93.80 90.04 87.73 87.13 83.39 89.52 Z" />
<path fill="#4e8589" opacity="1.00" d=" M 96.02 124.85 C 97.95 124.14 99.87 123.33 101.91 123.00 C 103.25 124.43 104.36 126.04 105.49 127.64 C 105.97 126.99 106.93 125.70 107.41 125.05 C 107.75 124.59 108.44 123.66 108.78 123.20 C 110.59 124.22 112.45 125.14 114.30 126.07 C 113.97 128.06 113.83 130.09 113.46 132.07 C 114.43 131.91 115.41 131.75 116.39 131.60 C 117.00 131.55 118.23 131.44 118.84 131.38 C 119.66 133.42 120.25 135.55 120.84 137.66 C 119.24 138.69 117.62 139.67 115.98 140.63 C 117.45 141.83 118.93 143.03 120.41 144.21 C 119.40 146.18 118.35 148.13 117.28 150.07 C 115.43 149.57 113.59 149.06 111.74 148.58 C 111.91 150.59 112.10 152.61 112.28 154.62 C 110.23 155.23 108.17 155.80 106.11 156.37 C 105.08 154.69 104.09 152.99 103.09 151.30 C 101.89 152.77 100.70 154.24 99.51 155.71 C 97.59 154.78 95.67 153.85 93.75 152.91 C 94.19 151.00 94.64 149.10 95.07 147.19 C 93.17 147.37 91.27 147.56 89.37 147.76 C 88.69 145.61 88.06 143.45 87.44 141.29 C 89.02 140.44 90.60 139.60 92.17 138.75 C 90.91 137.58 89.63 136.43 88.36 135.27 C 88.37 134.84 88.38 133.98 88.39 133.55 C 88.96 132.34 89.55 131.16 90.18 129.99 C 92.22 129.08 94.40 130.05 96.47 130.34 C 96.32 128.51 96.17 126.68 96.02 124.85 M 99.12 126.02 C 99.24 127.65 99.38 129.28 99.51 130.91 C 98.40 131.80 97.28 132.70 96.16 133.59 C 94.75 133.12 93.35 132.65 91.94 132.18 C 90.53 134.44 93.29 135.35 94.66 136.59 C 94.53 138.06 94.37 139.53 94.24 141.00 C 92.89 141.65 91.53 142.30 90.18 142.96 C 90.88 145.58 93.53 144.39 95.45 144.32 C 96.30 145.29 97.15 146.27 97.99 147.25 C 97.62 148.78 97.24 150.31 97.04 151.87 C 99.02 153.49 100.08 150.14 101.29 149.09 C 102.67 149.18 104.05 149.28 105.43 149.38 C 106.35 151.05 106.88 153.55 109.33 153.24 C 109.23 151.53 109.11 149.82 108.99 148.12 C 109.97 147.30 110.95 146.48 111.94 145.67 C 113.59 145.83 115.69 147.65 117.00 145.89 C 116.62 144.20 114.73 143.44 113.74 142.13 C 113.77 140.79 113.86 139.46 114.00 138.13 C 115.27 137.53 116.53 136.94 117.80 136.34 C 117.55 135.68 117.31 135.03 117.06 134.38 C 114.33 135.08 111.60 134.70 110.28 131.91 C 110.56 130.22 110.82 128.52 111.03 126.82 C 109.18 127.12 108.12 128.69 107.01 130.02 C 105.57 129.89 104.13 129.75 102.70 129.61 C 101.81 128.10 101.40 125.66 99.12 126.02 Z" />
</g>
<g id="#343c4bff">
<path fill="#343c4b" opacity="1.00" d=" M 56.67 73.70 C 61.16 68.29 68.93 63.93 75.95 66.97 C 83.53 69.72 87.50 77.36 94.02 81.69 C 93.05 82.85 92.07 84.01 90.93 85.01 C 88.99 84.99 88.94 82.63 88.05 81.38 C 86.84 81.40 85.63 81.42 84.43 81.45 C 84.08 82.50 83.74 83.55 83.39 84.61 C 82.49 85.01 81.59 85.41 80.69 85.82 C 79.49 85.39 78.28 84.98 77.08 84.56 C 76.43 85.34 75.78 86.13 75.14 86.92 C 75.64 88.97 75.73 91.08 75.48 93.17 C 74.32 93.58 73.15 93.98 71.98 94.38 C 72.00 95.56 72.03 96.73 72.05 97.91 C 73.15 98.48 74.24 99.07 75.34 99.64 C 75.73 100.49 76.11 101.35 76.49 102.20 C 76.08 103.17 75.67 104.14 75.26 105.11 C 76.16 106.03 77.08 106.95 78.00 107.86 C 78.99 107.33 79.98 106.80 80.97 106.28 C 83.04 107.31 84.77 108.83 86.17 110.66 C 86.81 117.92 87.72 125.17 88.34 132.44 C 83.26 131.65 78.15 130.72 73.39 128.70 C 67.09 126.18 62.16 121.26 57.82 116.19 C 48.11 104.37 46.88 85.84 56.67 73.70 Z" />
<path fill="#343c4b" opacity="1.00" d=" M 88.22 112.02 C 88.92 109.31 90.35 106.84 93.10 105.83 C 93.51 106.34 93.92 106.84 94.34 107.35 C 98.91 113.08 103.03 119.17 107.41 125.05 C 106.93 125.70 105.97 126.99 105.49 127.64 C 104.36 126.04 103.25 124.43 101.91 123.00 C 99.87 123.33 97.95 124.14 96.02 124.85 C 96.17 126.68 96.32 128.51 96.47 130.34 C 94.40 130.05 92.22 129.08 90.18 129.99 C 89.49 124.00 89.04 117.99 88.22 112.02 Z" />
</g>
<g id="#272f3fff">
<path fill="#272f3f" opacity="1.00" d=" M 113.90 74.60 C 126.15 82.80 143.62 81.04 154.08 70.69 C 159.26 86.73 158.21 104.75 150.91 119.97 C 143.43 136.16 129.03 148.72 112.28 154.62 C 112.10 152.61 111.91 150.59 111.74 148.58 C 113.59 149.06 115.43 149.57 117.28 150.07 C 118.35 148.13 119.40 146.18 120.41 144.21 C 118.93 143.03 117.45 141.83 115.98 140.63 C 117.62 139.67 119.24 138.69 120.84 137.66 C 120.25 135.55 119.66 133.42 118.84 131.38 C 118.23 131.44 117.00 131.55 116.39 131.60 C 120.69 126.32 126.03 121.50 127.77 114.63 C 130.51 107.51 126.66 99.47 120.63 95.39 C 114.91 91.44 109.05 87.68 103.68 83.24 C 107.11 80.38 110.48 77.46 113.90 74.60 Z" />
</g>
<g id="#313847ff">
<path fill="#313847" opacity="1.00" d=" M 96.54 89.24 C 98.91 87.23 101.30 85.23 103.68 83.24 C 109.05 87.68 114.91 91.44 120.63 95.39 C 126.66 99.47 130.51 107.51 127.77 114.63 C 126.03 121.50 120.69 126.32 116.39 131.60 C 115.41 131.75 114.43 131.91 113.46 132.07 C 113.83 130.09 113.97 128.06 114.30 126.07 C 112.45 125.14 110.59 124.22 108.78 123.20 C 104.65 117.95 100.89 112.41 96.92 107.03 C 97.23 106.46 97.84 105.31 98.14 104.74 C 97.50 102.74 97.41 100.66 98.06 98.64 C 99.20 98.15 100.34 97.66 101.48 97.16 C 101.34 95.93 101.18 94.69 101.02 93.46 C 100.29 93.27 98.83 92.88 98.10 92.69 C 97.57 91.54 97.05 90.39 96.54 89.24 Z" />
</g>
</svg>
