<?xml version="1.0" encoding="UTF-8" ?>
<!DOCTYPE svg PUBLIC "-//W3C//DTD SVG 1.1//EN" "http://www.w3.org/Graphics/SVG/1.1/DTD/svg11.dtd">
<svg width="1024pt" height="1024pt" viewBox="0 0 1024 1024" version="1.1" xmlns="http://www.w3.org/2000/svg">
<g id="#2b0000ff">
<path fill="#2b0000" opacity="1.00" d=" M 393.43 121.38 C 449.30 107.83 508.88 109.83 563.67 127.29 C 622.61 145.92 675.61 182.54 714.20 230.80 C 736.22 258.27 753.64 289.43 765.37 322.62 C 791.00 394.52 789.23 475.74 760.41 546.43 C 747.24 578.91 728.60 609.15 705.52 635.52 C 701.66 640.06 697.42 644.26 693.51 648.75 C 704.99 660.58 715.28 673.49 726.18 685.85 C 759.83 724.86 793.49 763.87 827.14 802.89 C 837.32 815.08 848.69 826.44 856.88 840.16 C 862.68 849.77 867.34 860.17 869.85 871.14 C 871.75 879.74 872.45 888.98 869.49 897.43 C 867.42 903.43 862.63 908.60 856.44 910.40 C 848.47 912.70 839.96 910.72 832.54 907.49 C 818.90 901.46 807.58 891.26 797.96 880.04 C 757.98 833.69 718.00 787.34 678.02 740.99 C 670.04 731.64 661.87 722.46 654.02 713.01 C 648.70 706.64 644.43 699.52 640.18 692.42 C 612.58 710.25 582.32 724.01 550.57 732.54 C 504.13 745.10 454.80 746.85 407.56 737.69 C 341.20 724.97 279.43 690.00 234.17 639.84 C 210.88 614.19 191.84 584.68 178.12 552.86 C 159.26 509.31 150.64 461.44 152.75 414.04 C 155.42 347.64 180.00 282.42 221.72 230.71 C 264.86 176.71 326.17 137.48 393.43 121.38 M 453.50 167.73 C 423.06 169.30 392.88 176.07 364.70 187.69 C 304.65 212.28 254.06 259.58 226.38 318.38 C 197.48 378.74 193.90 450.58 216.46 513.57 C 236.70 571.08 278.19 620.50 330.68 651.34 C 367.12 672.89 408.73 685.56 450.98 688.11 C 492.39 690.69 534.41 683.77 572.67 667.67 C 627.77 644.68 674.75 602.63 703.12 550.05 C 721.63 516.02 732.23 477.73 733.82 439.02 C 735.61 398.44 727.59 357.46 710.49 320.60 C 683.90 262.68 635.19 215.59 576.86 190.10 C 538.26 173.06 495.61 165.48 453.50 167.73 Z" />
</g>
</svg>
